<mxfile host="app.diagrams.net" modified="2024-03-09T16:50:53.131Z" agent="Mozilla/5.0 (Windows NT 10.0; Win64; x64) AppleWebKit/537.36 (KHTML, like Gecko) Chrome/122.0.0.0 Safari/537.36" etag="hU3fkwBWnGRMTB51rzS2" version="24.0.2" type="github">
  <diagram name="Página-1" id="sTKHqiS6cUfVu5iZcUCW">
    <mxGraphModel dx="1272" dy="869" grid="1" gridSize="10" guides="1" tooltips="1" connect="1" arrows="1" fold="1" page="1" pageScale="1" pageWidth="1169" pageHeight="827" math="0" shadow="0">
      <root>
        <mxCell id="0" />
        <mxCell id="1" parent="0" />
        <mxCell id="8ibs3JZTY_cnEbJicqfE-2" value="&lt;font style=&quot;font-size: 13px;&quot;&gt;Prescrição&lt;/font&gt;" style="text;html=1;align=left;verticalAlign=middle;whiteSpace=wrap;rounded=0;" vertex="1" parent="1">
          <mxGeometry x="40" y="50" width="60" height="30" as="geometry" />
        </mxCell>
        <mxCell id="8ibs3JZTY_cnEbJicqfE-5" value="data" style="rounded=0;whiteSpace=wrap;html=1;" vertex="1" parent="1">
          <mxGeometry x="135" y="90" width="95" height="40" as="geometry" />
        </mxCell>
        <mxCell id="8ibs3JZTY_cnEbJicqfE-6" value="&lt;font style=&quot;font-size: 13px;&quot;&gt;Médico&lt;/font&gt;" style="text;html=1;align=left;verticalAlign=middle;whiteSpace=wrap;rounded=0;" vertex="1" parent="1">
          <mxGeometry x="40" y="150" width="60" height="30" as="geometry" />
        </mxCell>
        <mxCell id="8ibs3JZTY_cnEbJicqfE-8" value="número SNS" style="rounded=0;whiteSpace=wrap;html=1;fontStyle=4" vertex="1" parent="1">
          <mxGeometry x="40" y="190" width="95" height="40" as="geometry" />
        </mxCell>
        <mxCell id="8ibs3JZTY_cnEbJicqfE-10" value="nome" style="rounded=0;whiteSpace=wrap;html=1;" vertex="1" parent="1">
          <mxGeometry x="135" y="190" width="90" height="40" as="geometry" />
        </mxCell>
        <mxCell id="8ibs3JZTY_cnEbJicqfE-11" value="especialidade" style="rounded=0;whiteSpace=wrap;html=1;" vertex="1" parent="1">
          <mxGeometry x="225" y="190" width="90" height="40" as="geometry" />
        </mxCell>
        <mxCell id="8ibs3JZTY_cnEbJicqfE-14" value="nome comercial" style="rounded=0;whiteSpace=wrap;html=1;" vertex="1" parent="1">
          <mxGeometry x="40" y="300" width="95" height="40" as="geometry" />
        </mxCell>
        <mxCell id="8ibs3JZTY_cnEbJicqfE-15" value="&lt;font style=&quot;font-size: 13px;&quot;&gt;Fármaco&lt;/font&gt;" style="text;html=1;align=left;verticalAlign=middle;whiteSpace=wrap;rounded=0;" vertex="1" parent="1">
          <mxGeometry x="40" y="260" width="60" height="30" as="geometry" />
        </mxCell>
        <mxCell id="8ibs3JZTY_cnEbJicqfE-16" value="&lt;u&gt;fórmula&lt;/u&gt;" style="rounded=0;whiteSpace=wrap;html=1;" vertex="1" parent="1">
          <mxGeometry x="135" y="300" width="90" height="40" as="geometry" />
        </mxCell>
        <mxCell id="8ibs3JZTY_cnEbJicqfE-17" value="&lt;u&gt;número&lt;/u&gt;" style="rounded=0;whiteSpace=wrap;html=1;" vertex="1" parent="1">
          <mxGeometry x="40" y="90" width="95" height="40" as="geometry" />
        </mxCell>
        <mxCell id="8ibs3JZTY_cnEbJicqfE-18" value="&lt;font style=&quot;font-size: 13px;&quot;&gt;Paciente&lt;/font&gt;" style="text;html=1;align=left;verticalAlign=middle;whiteSpace=wrap;rounded=0;" vertex="1" parent="1">
          <mxGeometry x="40" y="370" width="60" height="30" as="geometry" />
        </mxCell>
        <mxCell id="8ibs3JZTY_cnEbJicqfE-24" value="número utente" style="rounded=0;whiteSpace=wrap;html=1;fontStyle=4" vertex="1" parent="1">
          <mxGeometry x="40" y="412" width="95" height="40" as="geometry" />
        </mxCell>
        <mxCell id="8ibs3JZTY_cnEbJicqfE-27" value="nome" style="rounded=0;whiteSpace=wrap;html=1;" vertex="1" parent="1">
          <mxGeometry x="135" y="412" width="95" height="40" as="geometry" />
        </mxCell>
        <mxCell id="8ibs3JZTY_cnEbJicqfE-28" value="data nascimento" style="rounded=0;whiteSpace=wrap;html=1;" vertex="1" parent="1">
          <mxGeometry x="230" y="412" width="95" height="40" as="geometry" />
        </mxCell>
        <mxCell id="8ibs3JZTY_cnEbJicqfE-29" value="endereço" style="rounded=0;whiteSpace=wrap;html=1;" vertex="1" parent="1">
          <mxGeometry x="325" y="412" width="95" height="40" as="geometry" />
        </mxCell>
        <mxCell id="8ibs3JZTY_cnEbJicqfE-30" value="&lt;font style=&quot;font-size: 13px;&quot;&gt;Farmácia&lt;/font&gt;" style="text;html=1;align=left;verticalAlign=middle;whiteSpace=wrap;rounded=0;" vertex="1" parent="1">
          <mxGeometry x="40" y="470" width="60" height="30" as="geometry" />
        </mxCell>
        <mxCell id="8ibs3JZTY_cnEbJicqfE-31" value="&lt;u&gt;nif&lt;/u&gt;" style="rounded=0;whiteSpace=wrap;html=1;" vertex="1" parent="1">
          <mxGeometry x="40" y="510" width="95" height="40" as="geometry" />
        </mxCell>
        <mxCell id="8ibs3JZTY_cnEbJicqfE-32" value="nome" style="rounded=0;whiteSpace=wrap;html=1;" vertex="1" parent="1">
          <mxGeometry x="135" y="510" width="95" height="40" as="geometry" />
        </mxCell>
        <mxCell id="8ibs3JZTY_cnEbJicqfE-33" value="endereço" style="rounded=0;whiteSpace=wrap;html=1;" vertex="1" parent="1">
          <mxGeometry x="230" y="510" width="95" height="40" as="geometry" />
        </mxCell>
        <mxCell id="8ibs3JZTY_cnEbJicqfE-34" value="telefone" style="rounded=0;whiteSpace=wrap;html=1;" vertex="1" parent="1">
          <mxGeometry x="325" y="510" width="95" height="40" as="geometry" />
        </mxCell>
        <mxCell id="8ibs3JZTY_cnEbJicqfE-35" value="&lt;span style=&quot;font-size: 13px;&quot;&gt;Companhia farmacêutica&lt;/span&gt;" style="text;html=1;align=left;verticalAlign=middle;whiteSpace=wrap;rounded=0;" vertex="1" parent="1">
          <mxGeometry x="40" y="580" width="170" height="30" as="geometry" />
        </mxCell>
        <mxCell id="8ibs3JZTY_cnEbJicqfE-36" value="&lt;u&gt;número registo nacional&lt;/u&gt;" style="rounded=0;whiteSpace=wrap;html=1;" vertex="1" parent="1">
          <mxGeometry x="40" y="620" width="95" height="40" as="geometry" />
        </mxCell>
        <mxCell id="8ibs3JZTY_cnEbJicqfE-37" value="nome" style="rounded=0;whiteSpace=wrap;html=1;" vertex="1" parent="1">
          <mxGeometry x="135" y="620" width="95" height="40" as="geometry" />
        </mxCell>
        <mxCell id="8ibs3JZTY_cnEbJicqfE-39" value="endereço" style="rounded=0;whiteSpace=wrap;html=1;" vertex="1" parent="1">
          <mxGeometry x="230" y="620" width="95" height="40" as="geometry" />
        </mxCell>
        <mxCell id="8ibs3JZTY_cnEbJicqfE-40" value="telefone" style="rounded=0;whiteSpace=wrap;html=1;" vertex="1" parent="1">
          <mxGeometry x="325" y="620" width="95" height="40" as="geometry" />
        </mxCell>
        <mxCell id="8ibs3JZTY_cnEbJicqfE-42" value="&lt;font style=&quot;font-size: 13px;&quot;&gt;Produção de fármacos&lt;/font&gt;" style="text;html=1;align=left;verticalAlign=middle;whiteSpace=wrap;rounded=0;" vertex="1" parent="1">
          <mxGeometry x="600" y="590" width="140" height="30" as="geometry" />
        </mxCell>
        <mxCell id="8ibs3JZTY_cnEbJicqfE-58" style="edgeStyle=orthogonalEdgeStyle;rounded=0;orthogonalLoop=1;jettySize=auto;html=1;entryX=0;entryY=0.75;entryDx=0;entryDy=0;" edge="1" parent="1" source="8ibs3JZTY_cnEbJicqfE-45" target="8ibs3JZTY_cnEbJicqfE-24">
          <mxGeometry relative="1" as="geometry">
            <Array as="points">
              <mxPoint x="278" y="30" />
              <mxPoint x="10" y="30" />
              <mxPoint x="10" y="442" />
            </Array>
          </mxGeometry>
        </mxCell>
        <mxCell id="8ibs3JZTY_cnEbJicqfE-45" value="número utente paciente" style="rounded=0;whiteSpace=wrap;html=1;fontStyle=4" vertex="1" parent="1">
          <mxGeometry x="230" y="90" width="95" height="40" as="geometry" />
        </mxCell>
        <mxCell id="8ibs3JZTY_cnEbJicqfE-59" style="edgeStyle=orthogonalEdgeStyle;rounded=0;orthogonalLoop=1;jettySize=auto;html=1;entryX=0.75;entryY=0;entryDx=0;entryDy=0;" edge="1" parent="1" source="8ibs3JZTY_cnEbJicqfE-46" target="8ibs3JZTY_cnEbJicqfE-8">
          <mxGeometry relative="1" as="geometry">
            <Array as="points">
              <mxPoint x="373" y="150" />
              <mxPoint x="111" y="150" />
            </Array>
          </mxGeometry>
        </mxCell>
        <mxCell id="8ibs3JZTY_cnEbJicqfE-46" value="num id médico" style="rounded=0;whiteSpace=wrap;html=1;fontStyle=4" vertex="1" parent="1">
          <mxGeometry x="325" y="90" width="95" height="40" as="geometry" />
        </mxCell>
        <mxCell id="8ibs3JZTY_cnEbJicqfE-66" style="edgeStyle=orthogonalEdgeStyle;rounded=0;orthogonalLoop=1;jettySize=auto;html=1;entryX=0.5;entryY=0;entryDx=0;entryDy=0;" edge="1" parent="1" source="8ibs3JZTY_cnEbJicqfE-48" target="8ibs3JZTY_cnEbJicqfE-16">
          <mxGeometry relative="1" as="geometry">
            <Array as="points">
              <mxPoint x="560" y="650" />
              <mxPoint x="560" y="280" />
              <mxPoint x="180" y="280" />
            </Array>
          </mxGeometry>
        </mxCell>
        <mxCell id="8ibs3JZTY_cnEbJicqfE-48" value="fórmula fármaco" style="rounded=0;whiteSpace=wrap;html=1;fontStyle=4" vertex="1" parent="1">
          <mxGeometry x="600" y="630" width="95" height="40" as="geometry" />
        </mxCell>
        <mxCell id="8ibs3JZTY_cnEbJicqfE-65" style="edgeStyle=orthogonalEdgeStyle;rounded=0;orthogonalLoop=1;jettySize=auto;html=1;entryX=0.5;entryY=1;entryDx=0;entryDy=0;" edge="1" parent="1" source="8ibs3JZTY_cnEbJicqfE-49" target="8ibs3JZTY_cnEbJicqfE-36">
          <mxGeometry relative="1" as="geometry">
            <Array as="points">
              <mxPoint x="743" y="700" />
              <mxPoint x="88" y="700" />
            </Array>
          </mxGeometry>
        </mxCell>
        <mxCell id="8ibs3JZTY_cnEbJicqfE-49" value="num registo farmacêutica" style="rounded=0;whiteSpace=wrap;html=1;fontStyle=4" vertex="1" parent="1">
          <mxGeometry x="695" y="630" width="95" height="40" as="geometry" />
        </mxCell>
        <mxCell id="8ibs3JZTY_cnEbJicqfE-62" style="edgeStyle=orthogonalEdgeStyle;rounded=0;orthogonalLoop=1;jettySize=auto;html=1;entryX=0;entryY=0.5;entryDx=0;entryDy=0;" edge="1" parent="1" source="8ibs3JZTY_cnEbJicqfE-54" target="8ibs3JZTY_cnEbJicqfE-17">
          <mxGeometry relative="1" as="geometry">
            <Array as="points">
              <mxPoint x="273" y="360" />
              <mxPoint x="20" y="360" />
              <mxPoint x="20" y="110" />
            </Array>
          </mxGeometry>
        </mxCell>
        <mxCell id="8ibs3JZTY_cnEbJicqfE-54" value="número prescrição" style="rounded=0;whiteSpace=wrap;html=1;" vertex="1" parent="1">
          <mxGeometry x="225" y="300" width="95" height="40" as="geometry" />
        </mxCell>
        <mxCell id="8ibs3JZTY_cnEbJicqfE-55" value="&lt;font style=&quot;font-size: 13px;&quot;&gt;Venda de fármacos&lt;/font&gt;" style="text;html=1;align=left;verticalAlign=middle;whiteSpace=wrap;rounded=0;" vertex="1" parent="1">
          <mxGeometry x="600" y="422" width="140" height="30" as="geometry" />
        </mxCell>
        <mxCell id="8ibs3JZTY_cnEbJicqfE-63" style="edgeStyle=orthogonalEdgeStyle;rounded=0;orthogonalLoop=1;jettySize=auto;html=1;entryX=0.75;entryY=0;entryDx=0;entryDy=0;" edge="1" parent="1" source="8ibs3JZTY_cnEbJicqfE-56" target="8ibs3JZTY_cnEbJicqfE-31">
          <mxGeometry relative="1" as="geometry" />
        </mxCell>
        <mxCell id="8ibs3JZTY_cnEbJicqfE-56" value="&lt;u&gt;nif farmácia&lt;/u&gt;" style="rounded=0;whiteSpace=wrap;html=1;" vertex="1" parent="1">
          <mxGeometry x="600" y="460" width="95" height="40" as="geometry" />
        </mxCell>
        <mxCell id="8ibs3JZTY_cnEbJicqfE-64" style="edgeStyle=orthogonalEdgeStyle;rounded=0;orthogonalLoop=1;jettySize=auto;html=1;entryX=0.5;entryY=1;entryDx=0;entryDy=0;" edge="1" parent="1" source="8ibs3JZTY_cnEbJicqfE-57" target="8ibs3JZTY_cnEbJicqfE-16">
          <mxGeometry relative="1" as="geometry">
            <Array as="points">
              <mxPoint x="743" y="380" />
              <mxPoint x="180" y="380" />
            </Array>
          </mxGeometry>
        </mxCell>
        <mxCell id="8ibs3JZTY_cnEbJicqfE-57" value="fórmula fármaco" style="rounded=0;whiteSpace=wrap;html=1;fontStyle=4" vertex="1" parent="1">
          <mxGeometry x="695" y="460" width="95" height="40" as="geometry" />
        </mxCell>
        <mxCell id="8ibs3JZTY_cnEbJicqfE-60" value="número SNS médico" style="rounded=0;whiteSpace=wrap;html=1;fontStyle=4" vertex="1" parent="1">
          <mxGeometry x="420" y="412" width="95" height="40" as="geometry" />
        </mxCell>
        <mxCell id="8ibs3JZTY_cnEbJicqfE-61" style="edgeStyle=orthogonalEdgeStyle;rounded=0;orthogonalLoop=1;jettySize=auto;html=1;entryX=0.653;entryY=1.167;entryDx=0;entryDy=0;entryPerimeter=0;" edge="1" parent="1" source="8ibs3JZTY_cnEbJicqfE-60" target="8ibs3JZTY_cnEbJicqfE-8">
          <mxGeometry relative="1" as="geometry">
            <Array as="points">
              <mxPoint x="468" y="390" />
              <mxPoint x="350" y="390" />
              <mxPoint x="350" y="270" />
              <mxPoint x="102" y="270" />
            </Array>
          </mxGeometry>
        </mxCell>
      </root>
    </mxGraphModel>
  </diagram>
</mxfile>
